# xmcd
#
# Track frame offsets:
#   150
#   13026
#   31499
#   43878
#   57735
#   73409
#   85203
#   98989
#   111431
#   122171
#   137852
#   149834
#   164581
#   176243
#   191391
#   203303
#   217573
#   228405
#   240975
#   263894
#   280028
#
# Disc length: 3883 seconds
#
# Revision: 0
# Processed by: cddbd v1.5.1PL2 Copyright (c) Steve Scherf et al.
# Submitted via: uFREEDB ActiveX Control 1.5
#
DISCID=400f2915
DTITLE=Vários - Forrozão do Milenio
DYEAR=1900
DGENRE=Country
TTITLE0=Alex e Cristiano - A garagem da vizinha
TTITLE1=Emilio e Eduardo - Você virou saudade
TTITLE2=Andre e Adriano - Vira e mexe
TTITLE3=Racyne e Rafael - O trem do velho
TTITLE4=Rionegro e Solimões - O de casa, O de fora
TTITLE5=Eumar e Eugenio - Bicho Papão
TTITLE6=Romes e Carlinhos - Jogo de Truco
TTITLE7=Ataide e Alexandre - Comer comer
TTITLE8=Emilio e Eduardo - Sapatiô Sapatiô
TTITLE9=Leonardo - Amor de trem
TTITLE10=Fabio e Fernando - Vai e vem
TTITLE11=Karlos e Allessandro - Tem amor
TTITLE12=Emilio e Eduardo - É pra quebrar a cama
TTITLE13=Romes e Carlinhos - Sapateia muié feia
TTITLE14=Ataide e Alexandre - Sucubiu
TTITLE15=Daniel - Sou maluco por mulher
TTITLE16=Romes e Carlinhos - Mais xonado do Brasil
TTITLE17=Rionegro e Solimões - Bate o pé
TTITLE18=Silvano Junior - Eu quero me casar
TTITLE19=Ataide e Alexandre - Onde tem amor
TTITLE20=Trio Parada Dura - Eu tô parpano
EXTD=
EXTT0=
EXTT1=
EXTT2=
EXTT3=
EXTT4=
EXTT5=
EXTT6=
EXTT7=
EXTT8=
EXTT9=
EXTT10=
EXTT11=
EXTT12=
EXTT13=
EXTT14=
EXTT15=
EXTT16=
EXTT17=
EXTT18=
EXTT19=
EXTT20=
PLAYORDER=
